<svg width="57" height="44" viewBox="0 0 57 44" fill="none" xmlns="http://www.w3.org/2000/svg">
<path fill-rule="evenodd" clip-rule="evenodd" d="M17.7428 0H8.99995C4.02939 0 -4.57764e-05 4.02944 -4.57764e-05 9V14.9927H27.5865V9.84373L17.7428 0ZM28.0984 8.65936L36.7577 0H19.439L28.0984 8.65936ZM28.7859 14.9927L28.7859 9.66803L38.454 0H47.9722C52.9427 0 56.9722 4.02944 56.9722 9V14.9927H33.5836V16.1921V27.5865H22.7888V16.1921L28.7859 16.1921V14.9927ZM21.5894 27.5865V16.1921L-4.57764e-05 16.1921V27.5865H21.5894ZM56.9722 27.5865H34.783V16.1921L56.9722 16.1921V27.5865ZM-4.57764e-05 34.1789V28.786H27.5865V34.0428L18.4503 43.1789H8.99996C4.0294 43.1789 -4.57764e-05 39.1495 -4.57764e-05 34.1789ZM28.2401 35.0854L20.1466 43.1789H36.3337L28.2401 35.0854ZM38.0299 43.1789H47.9722C52.9427 43.1789 56.9722 39.1495 56.9722 34.1789V28.786H28.7859V33.9349L38.0299 43.1789Z" fill="white" fill-opacity="0.8"/>
</svg>
