<svg width="62" height="16" viewBox="0 0 62 16" fill="none" xmlns="http://www.w3.org/2000/svg">
<path fill-rule="evenodd" clip-rule="evenodd" d="M7.54632 13.4379L8.07485 13.97L9.13909 12.913L8.61056 12.3809L4.84447 8.58923H12.8751H13.6251V7.08923H12.8751H4.77032L8.33241 3.25313L8.84275 2.70354L7.74356 1.68286L7.23322 2.23246L2.49696 7.33305L2.00684 7.86088L2.51444 8.37192L7.54632 13.4379Z" fill="#161412"/>
<path d="M25.414 4.194H28.704C29.628 4.194 30.3373 4.41333 30.832 4.852C31.336 5.29067 31.588 5.84133 31.588 6.504C31.588 7.008 31.448 7.44667 31.168 7.82C30.8973 8.19333 30.482 8.44533 29.922 8.576C30.4727 8.66933 30.9113 8.90733 31.238 9.29C31.574 9.67267 31.742 10.1067 31.742 10.592C31.742 11.6747 31.2147 12.4073 30.16 12.79C29.768 12.93 29.2873 13 28.718 13H25.414V4.194ZM28.69 12.034C29.362 12.034 29.8427 11.8987 30.132 11.628C30.4213 11.3573 30.566 10.998 30.566 10.55C30.566 10.102 30.4073 9.74733 30.09 9.486C29.7727 9.21533 29.306 9.08 28.69 9.08H26.52V12.034H28.69ZM26.52 8.128H28.676C29.2173 8.128 29.6467 7.99733 29.964 7.736C30.2907 7.46533 30.454 7.09667 30.454 6.63C30.454 6.16333 30.2953 5.79933 29.978 5.538C29.67 5.27667 29.236 5.146 28.676 5.146H26.52V8.128ZM36.972 4.194H38.316L41.27 13H40.122L39.366 10.76H35.866L35.11 13H33.948L36.972 4.194ZM36.16 9.892H39.086L37.63 5.552L36.16 9.892ZM46.9777 4.04C47.9204 4.04 48.6764 4.278 49.2457 4.754C49.8244 5.22067 50.2211 5.832 50.4357 6.588L49.2457 6.826C49.0591 6.27533 48.7651 5.84133 48.3637 5.524C47.9717 5.19733 47.5097 5.034 46.9777 5.034C46.2404 5.034 45.6291 5.342 45.1437 5.958C44.6584 6.574 44.4157 7.43267 44.4157 8.534C44.4157 9.626 44.6304 10.5033 45.0597 11.166C45.4984 11.8287 46.1377 12.16 46.9777 12.16C47.6777 12.16 48.2284 11.978 48.6297 11.614C49.0404 11.2407 49.2457 10.7507 49.2457 10.144H50.4357C50.4357 11.068 50.1184 11.8007 49.4837 12.342C48.8584 12.8833 47.9951 13.154 46.8937 13.154C45.8017 13.154 44.9151 12.734 44.2337 11.894C43.5617 11.054 43.2257 9.92933 43.2257 8.52C43.2257 7.11067 43.5757 6.014 44.2757 5.23C44.9757 4.43667 45.8764 4.04 46.9777 4.04ZM54.5067 4.194V8.268L58.4407 4.194H59.9667L56.1167 8.156L60.2047 13H58.7767L55.3747 8.926L54.5067 9.822V13H53.3867V4.194H54.5067Z" fill="#161412"/>
</svg>
