<svg width="135" height="24" viewBox="0 0 135 24" fill="none" xmlns="http://www.w3.org/2000/svg">
<path d="M32.736 16.08C32.88 16.032 33.088 16 33.264 16C33.44 16 33.616 16.032 33.792 16.08C35.2 12.4 36.736 8.72 38.4 5.04C38.208 5.088 38 5.12 37.808 5.12C37.616 5.12 37.408 5.088 37.216 5.04C36.544 7.136 34.752 11.904 33.584 14.496C32.24 11.264 30.88 7.872 29.936 5.04C29.664 5.088 29.376 5.12 29.104 5.12C28.832 5.12 28.544 5.088 28.272 5.04C29.824 8.72 31.776 13.44 32.736 16.08ZM40.3039 13.088C40.3039 14.048 40.2719 15.168 40.1759 16.08C40.4159 16.032 40.6559 16 40.8959 16C41.1359 16 41.3759 16.032 41.6159 16.08C41.5199 15.168 41.4879 14.048 41.4879 13.088V11.424C41.4879 10.464 41.5199 9.344 41.6159 8.432C41.3759 8.48 41.1359 8.512 40.8959 8.512C40.6559 8.512 40.4159 8.48 40.1759 8.432C40.2719 9.344 40.3039 10.464 40.3039 11.424V13.088ZM40.0799 5.648C40.0799 6.096 40.4479 6.464 40.8959 6.464C41.3439 6.464 41.7119 6.096 41.7119 5.648C41.7119 5.2 41.3439 4.832 40.8959 4.832C40.4479 4.832 40.0799 5.2 40.0799 5.648ZM43.685 12.48C43.685 14.608 45.269 16.24 47.573 16.24C48.565 16.24 49.605 15.776 50.245 15.264L50.341 14.48L50.261 14.432C49.701 15.072 48.709 15.568 47.861 15.568C46.085 15.568 45.093 14.272 45.093 12.608C45.093 12.464 45.093 12.32 45.109 12.16C45.813 12.144 46.501 12.112 47.205 12.112C48.341 12.112 49.477 12.144 50.629 12.16C50.645 11.952 50.661 11.744 50.661 11.536C50.661 9.76 49.589 8.272 47.349 8.272C44.997 8.272 43.685 9.888 43.685 12.48ZM47.381 8.784C49.045 8.784 49.349 10.416 49.349 11.552C48.677 11.568 47.925 11.6 47.221 11.6C46.549 11.6 45.797 11.568 45.141 11.552C45.221 10.4 45.813 8.784 47.381 8.784ZM54.213 16.08C54.357 16.048 54.517 16 54.661 16C54.805 16 54.965 16.048 55.109 16.08C55.701 14.144 56.693 11.424 57.221 10.144C58.069 12.224 58.725 14.144 59.269 16.08C59.381 16.048 59.541 16 59.685 16C59.829 16 59.973 16.048 60.101 16.08C61.013 13.536 62.085 10.992 63.285 8.432C63.141 8.48 62.965 8.512 62.805 8.512C62.629 8.512 62.469 8.48 62.293 8.432C61.589 10.448 60.565 13.184 60.021 14.56C59.253 12.432 58.517 10.448 57.989 8.432C57.829 8.48 57.701 8.512 57.541 8.512C57.381 8.512 57.221 8.48 57.061 8.432C56.469 10.432 55.445 13.344 54.949 14.56C54.117 12.432 53.445 10.432 52.901 8.432C52.661 8.48 52.405 8.512 52.165 8.512C51.909 8.512 51.669 8.48 51.413 8.432C52.469 10.976 53.717 14.4 54.213 16.08ZM69.6633 13.088C69.6633 14.048 69.6313 15.168 69.5353 16.08C69.7753 16.032 70.0153 16 70.2553 16C70.4953 16 70.7353 16.032 70.9753 16.08C70.8793 15.168 70.8473 14.048 70.8473 13.088V11.424C70.8473 10.464 70.8793 9.344 70.9753 8.432C70.7353 8.48 70.4953 8.512 70.2553 8.512C70.0153 8.512 69.7753 8.48 69.5353 8.432C69.6313 9.344 69.6633 10.464 69.6633 11.424V13.088ZM69.4393 5.648C69.4393 6.096 69.8073 6.464 70.2553 6.464C70.7033 6.464 71.0713 6.096 71.0713 5.648C71.0713 5.2 70.7033 4.832 70.2553 4.832C69.8073 4.832 69.4393 5.2 69.4393 5.648ZM78.9164 11.536V12.512C78.9164 13.744 78.8364 14.912 78.8044 16.08C79.0284 16.032 79.2364 16 79.4604 16C79.6844 16 79.8924 16.032 80.1324 16.08C80.1004 15.392 80.1004 14.72 80.1004 14.016C80.1004 12.928 80.1644 11.968 80.1644 11.056C80.1644 8.848 78.7884 8.272 77.6044 8.272C76.4524 8.272 75.6364 8.8 75.0444 9.712H75.0124C75.0124 9.28 75.0284 8.864 75.0604 8.432C74.8204 8.48 74.5804 8.512 74.4204 8.512C74.1804 8.512 73.9404 8.48 73.7004 8.432C73.7964 9.344 73.8284 10.464 73.8284 11.424V13.088C73.8284 14.048 73.7964 15.168 73.7004 16.08C73.9404 16.032 74.1804 16 74.4204 16C74.6604 16 74.9004 16.032 75.1404 16.08C75.0444 15.168 75.0124 14.048 75.0124 13.088V11.728C75.0124 10.064 75.6844 9.104 77.1724 9.104C78.2284 9.104 78.9164 9.968 78.9164 11.536ZM87.2041 10.032H87.3801C87.7481 9.344 88.5481 8.944 89.3961 8.944C90.6761 8.944 91.1561 9.888 91.1561 10.96C91.1561 11.584 91.0761 11.712 88.7561 12.08C87.3641 12.304 86.5001 12.992 86.5001 14.272C86.5001 15.488 87.5561 16.24 88.6281 16.24C89.7161 16.24 90.3721 15.84 91.1401 15.072C91.2041 15.616 91.5561 16.064 92.2441 16.064C92.6601 16.064 93.0441 15.936 93.2681 15.84V15.488C93.1561 15.552 93.0281 15.552 92.9321 15.552C92.3081 15.552 92.3081 14.896 92.3081 14.368C92.3081 13.024 92.3721 11.84 92.3721 10.64C92.3721 9.216 91.3161 8.272 89.7801 8.272C88.9321 8.272 88.1641 8.48 87.2041 9.2V10.032ZM91.0921 14.448C90.7241 15.04 90.0201 15.568 89.2041 15.568C88.5001 15.568 87.8121 15.056 87.8121 14.048C87.8121 12.304 90.0521 12.416 91.1561 12.048L91.0921 14.448ZM103.273 9.664C103.273 9.232 103.273 8.624 103.385 8.368C103.177 8.288 103.065 8.272 102.873 8.272C102.137 8.272 101.369 8.848 100.761 10L100.729 9.984C100.729 9.584 100.729 9.2 100.809 8.432C100.601 8.48 100.377 8.512 100.169 8.512C99.9453 8.512 99.7373 8.48 99.4973 8.432C99.5613 9.808 99.5613 10.912 99.5613 11.744V12.256C99.5613 14.048 99.5613 15.296 99.4973 16.08C99.7373 16.032 99.9453 16 100.169 16C100.377 16 100.601 16.032 100.809 16.08C100.745 15.344 100.745 14.496 100.745 11.712C100.745 10.464 101.353 9.488 102.377 9.488C102.697 9.488 103.049 9.616 103.161 9.744L103.273 9.664ZM104.169 12.256C104.169 15.168 106.201 16.24 108.057 16.24C109.913 16.24 111.945 15.168 111.945 12.256C111.945 9.344 109.913 8.272 108.057 8.272C106.201 8.272 104.169 9.344 104.169 12.256ZM105.577 12.256C105.577 10.464 106.169 8.784 108.057 8.784C109.945 8.784 110.537 10.464 110.537 12.256C110.537 14.048 109.945 15.728 108.057 15.728C106.169 15.728 105.577 14.048 105.577 12.256ZM113.06 12.256C113.06 15.168 115.092 16.24 116.948 16.24C118.804 16.24 120.836 15.168 120.836 12.256C120.836 9.344 118.804 8.272 116.948 8.272C115.092 8.272 113.06 9.344 113.06 12.256ZM114.468 12.256C114.468 10.464 115.06 8.784 116.948 8.784C118.836 8.784 119.428 10.464 119.428 12.256C119.428 14.048 118.836 15.728 116.948 15.728C115.06 15.728 114.468 14.048 114.468 12.256ZM122.639 13.088C122.639 14.048 122.607 15.168 122.511 16.08C122.751 16.032 122.991 16 123.231 16C123.471 16 123.711 16.032 123.951 16.08C123.855 15.168 123.823 14.048 123.823 13.088V11.728C123.823 10.064 124.495 9.104 125.871 9.104C126.399 9.104 126.975 9.44 127.199 9.84C127.471 10.336 127.487 10.464 127.487 12.448C127.487 13.616 127.439 14.88 127.343 16.08C127.583 16.032 127.823 16 128.047 16C128.271 16 128.511 16.032 128.751 16.08C128.703 15.088 128.671 14.464 128.671 13.536C128.671 10.496 128.719 10.336 129.055 9.856C129.343 9.456 129.887 9.104 130.655 9.104C131.919 9.104 132.335 9.952 132.335 11.024C132.335 13.888 132.239 15.488 132.175 16.08C132.399 16.032 132.639 16 132.879 16C133.119 16 133.343 16.032 133.567 16.08C133.519 15.408 133.519 14.912 133.519 14.336C133.519 12.448 133.615 11.536 133.615 10.8C133.615 8.992 132.559 8.272 131.167 8.272C130.031 8.272 129.103 8.832 128.591 9.856H128.559C128.335 8.944 127.327 8.272 126.239 8.272C125.215 8.272 124.431 8.736 123.855 9.712H123.823C123.823 9.28 123.839 8.864 123.871 8.432C123.631 8.48 123.391 8.512 123.231 8.512C122.991 8.512 122.751 8.48 122.511 8.432C122.607 9.344 122.639 10.464 122.639 11.424V13.088Z" fill="#161412"/>
<ellipse cx="10" cy="12" rx="7.5" ry="5" stroke="#171716"/>
<circle cx="9.99967" cy="11.9999" r="2.91667" stroke="#171716"/>
</svg>
