<svg width="67" height="24" viewBox="0 0 67 24" fill="none" xmlns="http://www.w3.org/2000/svg">
<path fill-rule="evenodd" clip-rule="evenodd" d="M9.46786 6.39226L7.43582 8.41061L6.55493 7.52374L9.55454 4.54434L9.98041 4.12134L10.4203 4.52978L13.4403 7.33414L12.5898 8.25013L10.7179 6.51192V14.8966H9.46786V6.39226ZM3.78223 10.7719H4.40723H7.17423V12.0219H5.03223V18.3909H15.0102V12.0219H13.0075V10.7719H15.6352H16.2602V11.3969V19.0159V19.6409H15.6352H4.40723H3.78223V19.0159V11.3969V10.7719Z" fill="#161412"/>
<path d="M29.024 13.952C28.96 14.56 28.912 14.88 28.72 15.376C29.28 15.824 30.032 16.288 31.36 16.288C33.824 16.288 35.28 14.64 35.28 12.688C35.28 9.152 30.24 10.4 30.24 7.408C30.24 6.24 31.104 5.424 32.304 5.424C33.504 5.424 33.984 6.336 34.208 6.928H34.4C34.528 6.32 34.64 5.952 34.832 5.584C34.192 5.072 33.472 4.832 32.464 4.832C30.336 4.832 28.992 6.08 28.992 7.856C28.992 11.616 34.032 10.352 34.032 13.296C34.032 14.576 33.168 15.616 31.744 15.616C30.368 15.616 29.568 14.704 29.216 13.952H29.024ZM37.344 11.472C37.344 12.944 37.312 15.008 37.216 16.08C37.456 16.032 37.696 16 37.936 16C38.176 16 38.416 16.032 38.656 16.08C38.56 15.008 38.528 12.944 38.528 11.728C38.528 10.064 39.2 9.104 40.688 9.104C41.744 9.104 42.432 9.968 42.432 11.536V12.512C42.432 13.744 42.352 14.912 42.32 16.08C42.544 16.032 42.752 16 42.976 16C43.2 16 43.408 16.032 43.648 16.08C43.616 15.392 43.616 14.72 43.616 14.016C43.616 12.928 43.68 11.968 43.68 11.056C43.68 8.848 42.304 8.272 41.12 8.272C39.968 8.272 39.152 8.8 38.56 9.712H38.528V8.496C38.528 7.104 38.56 5.04 38.656 3.968C38.416 4.016 38.176 4.048 37.936 4.048C37.696 4.048 37.456 4.016 37.216 3.968C37.312 5.04 37.344 7.104 37.344 8.576V11.472ZM46.2666 10.032H46.4426C46.8106 9.344 47.6106 8.944 48.4586 8.944C49.7386 8.944 50.2186 9.888 50.2186 10.96C50.2186 11.584 50.1386 11.712 47.8186 12.08C46.4266 12.304 45.5626 12.992 45.5626 14.272C45.5626 15.488 46.6186 16.24 47.6906 16.24C48.7786 16.24 49.4346 15.84 50.2026 15.072C50.2666 15.616 50.6186 16.064 51.3066 16.064C51.7226 16.064 52.1066 15.936 52.3306 15.84V15.488C52.2186 15.552 52.0906 15.552 51.9946 15.552C51.3706 15.552 51.3706 14.896 51.3706 14.368C51.3706 13.024 51.4346 11.84 51.4346 10.64C51.4346 9.216 50.3786 8.272 48.8426 8.272C47.9946 8.272 47.2266 8.48 46.2666 9.2V10.032ZM50.1546 14.448C49.7866 15.04 49.0826 15.568 48.2666 15.568C47.5626 15.568 46.8746 15.056 46.8746 14.048C46.8746 12.304 49.1146 12.416 50.2186 12.048L50.1546 14.448ZM57.8826 9.664C57.8826 9.232 57.8826 8.624 57.9946 8.368C57.7866 8.288 57.6746 8.272 57.4826 8.272C56.7466 8.272 55.9786 8.848 55.3706 10L55.3386 9.984C55.3386 9.584 55.3386 9.2 55.4186 8.432C55.2106 8.48 54.9866 8.512 54.7786 8.512C54.5546 8.512 54.3466 8.48 54.1066 8.432C54.1706 9.808 54.1706 10.912 54.1706 11.744V12.256C54.1706 14.048 54.1706 15.296 54.1066 16.08C54.3466 16.032 54.5546 16 54.7786 16C54.9866 16 55.2106 16.032 55.4186 16.08C55.3546 15.344 55.3546 14.496 55.3546 11.712C55.3546 10.464 55.9626 9.488 56.9866 9.488C57.3066 9.488 57.6586 9.616 57.7706 9.744L57.8826 9.664ZM58.7788 12.48C58.7788 14.608 60.3628 16.24 62.6668 16.24C63.6588 16.24 64.6988 15.776 65.3388 15.264L65.4348 14.48L65.3548 14.432C64.7948 15.072 63.8028 15.568 62.9548 15.568C61.1788 15.568 60.1868 14.272 60.1868 12.608C60.1868 12.464 60.1868 12.32 60.2028 12.16C60.9068 12.144 61.5948 12.112 62.2988 12.112C63.4348 12.112 64.5708 12.144 65.7228 12.16C65.7388 11.952 65.7548 11.744 65.7548 11.536C65.7548 9.76 64.6828 8.272 62.4427 8.272C60.0908 8.272 58.7788 9.888 58.7788 12.48ZM62.4748 8.784C64.1388 8.784 64.4428 10.416 64.4428 11.552C63.7708 11.568 63.0188 11.6 62.3148 11.6C61.6428 11.6 60.8908 11.568 60.2348 11.552C60.3148 10.4 60.9068 8.784 62.4748 8.784Z" fill="#161412"/>
</svg>
