<svg width="420" height="16" viewBox="0 0 420 16" fill="none" xmlns="http://www.w3.org/2000/svg">
<g clip-path="url(#clip0_0_232)">
<path d="M25.9 4.194H31.318V5.146H27.006V8.1H31.066V9.038H27.006V12.034H31.318V13H25.9V4.194ZM33.4253 7.946C33.4253 7.39533 33.6587 6.95667 34.1253 6.63C34.6013 6.30333 35.2407 6.14 36.0433 6.14C36.846 6.14 37.4713 6.308 37.9193 6.644C38.3767 6.98 38.6147 7.40467 38.6333 7.918H37.5553C37.4713 7.31133 36.958 7.008 36.0153 7.008C35.558 7.008 35.2033 7.11067 34.9513 7.316C34.7087 7.52133 34.5873 7.74533 34.5873 7.988C34.5873 8.22133 34.6807 8.422 34.8673 8.59C35.054 8.74867 35.3527 8.88867 35.7633 9.01L37.1073 9.458C37.6767 9.63533 38.1107 9.864 38.4093 10.144C38.7173 10.4147 38.8713 10.7927 38.8713 11.278C38.8713 11.754 38.624 12.188 38.1293 12.58C37.6347 12.9627 36.944 13.154 36.0573 13.154C35.1707 13.154 34.48 12.958 33.9853 12.566C33.4907 12.1647 33.2293 11.6513 33.2013 11.026H34.2653C34.284 11.446 34.452 11.7633 34.7693 11.978C35.096 12.1833 35.502 12.286 35.9873 12.286C36.4727 12.286 36.874 12.1833 37.1913 11.978C37.5087 11.7727 37.6673 11.53 37.6673 11.25C37.6673 10.9607 37.574 10.7413 37.3873 10.592C37.2007 10.4427 36.8973 10.312 36.4773 10.2L35.1753 9.766C34.0087 9.42067 33.4253 8.814 33.4253 7.946ZM44.6445 12.804C43.8418 13.1773 43.1091 13.2567 42.4465 13.042C41.9705 12.8927 41.6345 12.58 41.4385 12.104C41.3358 11.8707 41.2845 11.5907 41.2845 11.264V7.148H40.2065V6.308H41.2845V4.446H42.3765V6.308H44.4765V7.148H42.3765V11.25C42.3765 11.9313 42.6938 12.272 43.3285 12.272C43.6738 12.272 44.0611 12.188 44.4905 12.02L44.6445 12.804ZM46.4781 6.294H47.5841V13H46.4781V6.294ZM47.0241 4.726C46.8001 4.726 46.6228 4.66533 46.4921 4.544C46.3708 4.41333 46.3101 4.24533 46.3101 4.04C46.3101 3.82533 46.3708 3.65733 46.4921 3.536C46.6228 3.40533 46.8001 3.34 47.0241 3.34C47.2481 3.34 47.4255 3.40533 47.5561 3.536C47.6961 3.65733 47.7661 3.82533 47.7661 4.04C47.7661 4.24533 47.6961 4.41333 47.5561 4.544C47.4255 4.66533 47.2481 4.726 47.0241 4.726ZM51.6557 7.596C52.0944 6.62533 52.8457 6.14 53.9097 6.14C54.4884 6.14 54.9737 6.28467 55.3657 6.574C55.7577 6.854 56.0424 7.246 56.2197 7.75C56.6397 6.67667 57.4191 6.14 58.5577 6.14C59.3604 6.14 59.9811 6.40133 60.4197 6.924C60.8584 7.44667 61.0777 8.16067 61.0777 9.066V13H59.9857V9.066C59.9857 8.422 59.8317 7.93667 59.5237 7.61C59.2251 7.28333 58.7911 7.12 58.2217 7.12C57.6524 7.12 57.2091 7.35333 56.8917 7.82C56.5837 8.28667 56.4297 8.93067 56.4297 9.752V13H55.3377V9.066C55.3377 8.422 55.1837 7.93667 54.8757 7.61C54.5771 7.28333 54.1477 7.12 53.5877 7.12C53.0277 7.12 52.5751 7.34867 52.2297 7.806C51.8844 8.26333 51.7024 8.898 51.6837 9.71V13H50.5777V6.308H51.5297L51.6557 7.596ZM67.8197 8.66C67.8197 8.05333 67.6937 7.61933 67.4417 7.358C67.1897 7.09667 66.8211 6.966 66.3357 6.966C65.8597 6.966 65.4724 7.064 65.1737 7.26C64.8844 7.44667 64.7397 7.74533 64.7397 8.156H63.5217C63.5217 7.12933 64.0724 6.49467 65.1737 6.252C65.5097 6.17733 65.8737 6.14 66.2657 6.14C67.0964 6.14 67.7451 6.35 68.2117 6.77C68.6784 7.19 68.9117 7.82933 68.9117 8.688V13H67.9597L67.8477 11.88C67.4371 12.7293 66.6951 13.154 65.6217 13.154C64.9031 13.154 64.3244 12.9533 63.8857 12.552C63.4564 12.1507 63.2417 11.6513 63.2417 11.054C63.2417 10.4567 63.4797 9.99 63.9557 9.654C64.4411 9.318 65.0431 9.15 65.7617 9.15C66.4804 9.15 67.1664 9.27133 67.8197 9.514V8.66ZM67.8197 10.214C67.1571 10.0273 66.5784 9.934 66.0837 9.934C65.5891 9.934 65.1877 10.0227 64.8797 10.2C64.5717 10.3773 64.4177 10.6573 64.4177 11.04C64.4177 11.88 64.8937 12.3 65.8457 12.3C66.3871 12.3 66.8491 12.1087 67.2317 11.726C67.6237 11.334 67.8197 10.83 67.8197 10.214ZM75.0097 12.804C74.207 13.1773 73.4744 13.2567 72.8117 13.042C72.3357 12.8927 71.9997 12.58 71.8037 12.104C71.701 11.8707 71.6497 11.5907 71.6497 11.264V7.148H70.5717V6.308H71.6497V4.446H72.7417V6.308H74.8417V7.148H72.7417V11.25C72.7417 11.9313 73.059 12.272 73.6937 12.272C74.039 12.272 74.4264 12.188 74.8557 12.02L75.0097 12.804ZM79.0834 12.258C80.0074 12.258 80.5347 11.852 80.6654 11.04H81.7994C81.6967 11.712 81.398 12.2347 80.9034 12.608C80.418 12.972 79.8114 13.154 79.0834 13.154C78.1874 13.154 77.4594 12.8367 76.8994 12.202C76.3394 11.558 76.0594 10.704 76.0594 9.64C76.0594 8.576 76.3394 7.72667 76.8994 7.092C77.4687 6.45733 78.22 6.14 79.1534 6.14C80.096 6.14 80.796 6.504 81.2534 7.232C81.72 7.96 81.8834 8.84667 81.7434 9.892H77.1654C77.1654 10.5827 77.3334 11.152 77.6694 11.6C78.0054 12.0387 78.4767 12.258 79.0834 12.258ZM79.8954 7.19C79.6807 7.078 79.4194 7.022 79.1114 7.022C78.542 7.022 78.0894 7.218 77.7534 7.61C77.4267 7.99267 77.2354 8.47333 77.1794 9.052H80.7494C80.7494 8.11867 80.4647 7.498 79.8954 7.19ZM88.3605 7.302V3.466H89.4525V13H88.5565L88.4165 11.88C88.2018 12.3 87.9171 12.6173 87.5625 12.832C87.2078 13.0467 86.8205 13.154 86.4005 13.154C85.5511 13.154 84.8371 12.8273 84.2585 12.174C83.6891 11.5207 83.4045 10.6713 83.4045 9.626C83.4045 8.57133 83.6845 7.72667 84.2445 7.092C84.8138 6.45733 85.5278 6.14 86.3865 6.14C87.2545 6.14 87.9125 6.52733 88.3605 7.302ZM86.4565 7.12C85.9151 7.12 85.4578 7.34867 85.0845 7.806C84.7205 8.26333 84.5385 8.87467 84.5385 9.64C84.5385 10.4053 84.7251 11.0213 85.0985 11.488C85.4718 11.9453 85.9198 12.174 86.4425 12.174C86.9651 12.174 87.4085 12.0013 87.7725 11.656C88.1458 11.3013 88.3418 10.83 88.3605 10.242V9.15C88.3605 8.52467 88.1785 8.03 87.8145 7.666C87.4505 7.302 86.9978 7.12 86.4565 7.12ZM99.1269 12.804C98.3242 13.1773 97.5916 13.2567 96.9289 13.042C96.4529 12.8927 96.1169 12.58 95.9209 12.104C95.8182 11.8707 95.7669 11.5907 95.7669 11.264V7.148H94.6889V6.308H95.7669V4.446H96.8589V6.308H98.9589V7.148H96.8589V11.25C96.8589 11.9313 97.1762 12.272 97.8109 12.272C98.1562 12.272 98.5436 12.188 98.9729 12.02L99.1269 12.804ZM103.299 6.14C104.232 6.14 104.983 6.44333 105.553 7.05C106.131 7.65667 106.421 8.52467 106.421 9.654C106.421 10.774 106.131 11.6373 105.553 12.244C104.983 12.8507 104.232 13.154 103.299 13.154C102.365 13.154 101.609 12.8507 101.031 12.244C100.461 11.6373 100.177 10.774 100.177 9.654C100.177 8.52467 100.461 7.65667 101.031 7.05C101.609 6.44333 102.365 6.14 103.299 6.14ZM105.301 9.654C105.301 8.85133 105.133 8.226 104.797 7.778C104.461 7.32067 103.966 7.092 103.313 7.092C102.669 7.092 102.174 7.32067 101.829 7.778C101.483 8.226 101.311 8.85133 101.311 9.654C101.311 10.4473 101.474 11.0727 101.801 11.53C102.127 11.978 102.613 12.202 103.257 12.202C103.91 12.202 104.414 11.978 104.769 11.53C105.123 11.0727 105.301 10.4473 105.301 9.654ZM111.519 7.946C111.519 7.39533 111.752 6.95667 112.219 6.63C112.695 6.30333 113.334 6.14 114.137 6.14C114.94 6.14 115.565 6.308 116.013 6.644C116.47 6.98 116.708 7.40467 116.727 7.918H115.649C115.565 7.31133 115.052 7.008 114.109 7.008C113.652 7.008 113.297 7.11067 113.045 7.316C112.802 7.52133 112.681 7.74533 112.681 7.988C112.681 8.22133 112.774 8.422 112.961 8.59C113.148 8.74867 113.446 8.88867 113.857 9.01L115.201 9.458C115.77 9.63533 116.204 9.864 116.503 10.144C116.811 10.4147 116.965 10.7927 116.965 11.278C116.965 11.754 116.718 12.188 116.223 12.58C115.728 12.9627 115.038 13.154 114.151 13.154C113.264 13.154 112.574 12.958 112.079 12.566C111.584 12.1647 111.323 11.6513 111.295 11.026H112.359C112.378 11.446 112.546 11.7633 112.863 11.978C113.19 12.1833 113.596 12.286 114.081 12.286C114.566 12.286 114.968 12.1833 115.285 11.978C115.602 11.7727 115.761 11.53 115.761 11.25C115.761 10.9607 115.668 10.7413 115.481 10.592C115.294 10.4427 114.991 10.312 114.571 10.2L113.269 9.766C112.102 9.42067 111.519 8.814 111.519 7.946ZM120.344 7.54C120.792 6.60667 121.534 6.14 122.57 6.14C123.364 6.14 123.98 6.40133 124.418 6.924C124.866 7.44667 125.09 8.16067 125.09 9.066V13H123.998V9.066C123.998 8.422 123.844 7.93667 123.536 7.61C123.238 7.28333 122.804 7.12 122.234 7.12C121.665 7.12 121.208 7.36267 120.862 7.848C120.517 8.324 120.344 8.98667 120.344 9.836V13H119.238V3.466H120.344V7.54ZM127.757 6.294H128.863V13H127.757V6.294ZM128.303 4.726C128.079 4.726 127.902 4.66533 127.771 4.544C127.65 4.41333 127.589 4.24533 127.589 4.04C127.589 3.82533 127.65 3.65733 127.771 3.536C127.902 3.40533 128.079 3.34 128.303 3.34C128.527 3.34 128.705 3.40533 128.835 3.536C128.975 3.65733 129.045 3.82533 129.045 4.04C129.045 4.24533 128.975 4.41333 128.835 4.544C128.705 4.66533 128.527 4.726 128.303 4.726ZM132.907 7.33C133.346 6.53667 133.999 6.14 134.867 6.14C135.744 6.14 136.472 6.462 137.051 7.106C137.639 7.75 137.933 8.59933 137.933 9.654C137.933 10.7087 137.639 11.558 137.051 12.202C136.463 12.8367 135.74 13.154 134.881 13.154C134.022 13.154 133.388 12.832 132.977 12.188V16.29H131.871V6.308H132.781L132.907 7.33ZM134.825 12.174C135.348 12.174 135.805 11.95 136.197 11.502C136.598 11.054 136.799 10.4427 136.799 9.668C136.799 8.884 136.608 8.26333 136.225 7.806C135.852 7.34867 135.394 7.12 134.853 7.12C134.312 7.12 133.868 7.29267 133.523 7.638C133.178 7.974 132.996 8.43133 132.977 9.01V10.284C132.977 10.872 133.154 11.334 133.509 11.67C133.864 12.006 134.302 12.174 134.825 12.174ZM143.589 6.294H144.695V13H143.589V6.294ZM144.135 4.726C143.911 4.726 143.734 4.66533 143.603 4.544C143.482 4.41333 143.421 4.24533 143.421 4.04C143.421 3.82533 143.482 3.65733 143.603 3.536C143.734 3.40533 143.911 3.34 144.135 3.34C144.359 3.34 144.537 3.40533 144.667 3.536C144.807 3.65733 144.877 3.82533 144.877 4.04C144.877 4.24533 144.807 4.41333 144.667 4.544C144.537 4.66533 144.359 4.726 144.135 4.726ZM148.767 7.596C149.206 6.62533 149.957 6.14 151.021 6.14C151.814 6.14 152.43 6.40133 152.869 6.924C153.317 7.44667 153.541 8.16067 153.541 9.066V13H152.449V9.066C152.449 8.422 152.295 7.93667 151.987 7.61C151.688 7.28333 151.259 7.12 150.699 7.12C150.139 7.12 149.686 7.34867 149.341 7.806C148.996 8.26333 148.814 8.898 148.795 9.71V13H147.689V6.308H148.641L148.767 7.596ZM165.131 6.448C165.131 7.38133 164.617 8.03 163.591 8.394C164.151 8.55267 164.603 8.814 164.949 9.178C165.294 9.542 165.467 10.0087 165.467 10.578C165.467 11.3527 165.173 11.978 164.585 12.454C163.997 12.9207 163.222 13.154 162.261 13.154C161.299 13.154 160.478 12.9067 159.797 12.412C159.125 11.908 158.789 11.2033 158.789 10.298H159.937C159.955 10.8953 160.175 11.3527 160.595 11.67C161.024 11.9873 161.565 12.146 162.219 12.146C162.872 12.146 163.376 11.992 163.731 11.684C164.095 11.3667 164.277 10.9793 164.277 10.522C164.277 10.0553 164.104 9.67733 163.759 9.388C163.413 9.08933 162.853 8.94 162.079 8.94H161.071V8.058H161.757C162.429 8.058 162.961 7.92733 163.353 7.666C163.745 7.39533 163.941 7.036 163.941 6.588C163.941 6.14 163.782 5.77133 163.465 5.482C163.147 5.19267 162.727 5.048 162.205 5.048C161.682 5.048 161.243 5.14133 160.889 5.328C160.543 5.50533 160.31 5.84133 160.189 6.336H159.041C159.143 5.56133 159.465 4.98733 160.007 4.614C160.548 4.23133 161.243 4.04 162.093 4.04C162.951 4.04 163.67 4.26867 164.249 4.726C164.837 5.174 165.131 5.748 165.131 6.448ZM170.2 8.45H174.008V9.402H170.2V8.45ZM184.213 4.194V5.216L180.181 13H178.697L182.925 5.258H178.221V4.194H184.213ZM193.593 7.302V3.466H194.685V13H193.789L193.649 11.88C193.434 12.3 193.15 12.6173 192.795 12.832C192.44 13.0467 192.053 13.154 191.633 13.154C190.784 13.154 190.07 12.8273 189.491 12.174C188.922 11.5207 188.637 10.6713 188.637 9.626C188.637 8.57133 188.917 7.72667 189.477 7.092C190.046 6.45733 190.76 6.14 191.619 6.14C192.487 6.14 193.145 6.52733 193.593 7.302ZM191.689 7.12C191.148 7.12 190.69 7.34867 190.317 7.806C189.953 8.26333 189.771 8.87467 189.771 9.64C189.771 10.4053 189.958 11.0213 190.331 11.488C190.704 11.9453 191.152 12.174 191.675 12.174C192.198 12.174 192.641 12.0013 193.005 11.656C193.378 11.3013 193.574 10.83 193.593 10.242V9.15C193.593 8.52467 193.411 8.03 193.047 7.666C192.683 7.302 192.23 7.12 191.689 7.12ZM201.667 8.66C201.667 8.05333 201.541 7.61933 201.289 7.358C201.037 7.09667 200.669 6.966 200.183 6.966C199.707 6.966 199.32 7.064 199.021 7.26C198.732 7.44667 198.587 7.74533 198.587 8.156H197.369C197.369 7.12933 197.92 6.49467 199.021 6.252C199.357 6.17733 199.721 6.14 200.113 6.14C200.944 6.14 201.593 6.35 202.059 6.77C202.526 7.19 202.759 7.82933 202.759 8.688V13H201.807L201.695 11.88C201.285 12.7293 200.543 13.154 199.469 13.154C198.751 13.154 198.172 12.9533 197.733 12.552C197.304 12.1507 197.089 11.6513 197.089 11.054C197.089 10.4567 197.327 9.99 197.803 9.654C198.289 9.318 198.891 9.15 199.609 9.15C200.328 9.15 201.014 9.27133 201.667 9.514V8.66ZM201.667 10.214C201.005 10.0273 200.426 9.934 199.931 9.934C199.437 9.934 199.035 10.0227 198.727 10.2C198.419 10.3773 198.265 10.6573 198.265 11.04C198.265 11.88 198.741 12.3 199.693 12.3C200.235 12.3 200.697 12.1087 201.079 11.726C201.471 11.334 201.667 10.83 201.667 10.214ZM204.013 14.946C204.471 15.3007 204.951 15.478 205.455 15.478C205.829 15.478 206.151 15.2913 206.421 14.918C206.617 14.6473 206.795 14.2367 206.953 13.686L207.149 13L204.405 6.308H205.637L207.667 11.642L209.249 6.308H210.369L207.863 14.33C207.649 15.0113 207.364 15.534 207.009 15.898C206.664 16.262 206.221 16.444 205.679 16.444C205.147 16.444 204.592 16.2807 204.013 15.954V14.946ZM211.789 7.946C211.789 7.39533 212.022 6.95667 212.489 6.63C212.965 6.30333 213.604 6.14 214.407 6.14C215.209 6.14 215.835 6.308 216.283 6.644C216.74 6.98 216.978 7.40467 216.997 7.918H215.919C215.835 7.31133 215.321 7.008 214.379 7.008C213.921 7.008 213.567 7.11067 213.315 7.316C213.072 7.52133 212.951 7.74533 212.951 7.988C212.951 8.22133 213.044 8.422 213.231 8.59C213.417 8.74867 213.716 8.88867 214.127 9.01L215.471 9.458C216.04 9.63533 216.474 9.864 216.773 10.144C217.081 10.4147 217.235 10.7927 217.235 11.278C217.235 11.754 216.987 12.188 216.493 12.58C215.998 12.9627 215.307 13.154 214.421 13.154C213.534 13.154 212.843 12.958 212.349 12.566C211.854 12.1647 211.593 11.6513 211.565 11.026H212.629C212.647 11.446 212.815 11.7633 213.133 11.978C213.459 12.1833 213.865 12.286 214.351 12.286C214.836 12.286 215.237 12.1833 215.555 11.978C215.872 11.7727 216.031 11.53 216.031 11.25C216.031 10.9607 215.937 10.7413 215.751 10.592C215.564 10.4427 215.261 10.312 214.841 10.2L213.539 9.766C212.372 9.42067 211.789 8.814 211.789 7.946ZM222.83 6.308L224.454 11.642L226.05 6.63H226.974L228.556 11.698L230.194 6.308H231.286L229.102 13H228.024L226.484 8.31L224.972 13H223.908L221.682 6.308H222.83ZM233.058 6.294H234.164V13H233.058V6.294ZM233.604 4.726C233.38 4.726 233.203 4.66533 233.072 4.544C232.951 4.41333 232.89 4.24533 232.89 4.04C232.89 3.82533 232.951 3.65733 233.072 3.536C233.203 3.40533 233.38 3.34 233.604 3.34C233.828 3.34 234.006 3.40533 234.136 3.536C234.276 3.65733 234.346 3.82533 234.346 4.04C234.346 4.24533 234.276 4.41333 234.136 4.544C234.006 4.66533 233.828 4.726 233.604 4.726ZM240.672 12.804C239.869 13.1773 239.136 13.2567 238.474 13.042C237.998 12.8927 237.662 12.58 237.466 12.104C237.363 11.8707 237.312 11.5907 237.312 11.264V7.148H236.234V6.308H237.312V4.446H238.404V6.308H240.504V7.148H238.404V11.25C238.404 11.9313 238.721 12.272 239.356 12.272C239.701 12.272 240.088 12.188 240.518 12.02L240.672 12.804ZM243.541 7.54C243.989 6.60667 244.731 6.14 245.767 6.14C246.561 6.14 247.177 6.40133 247.615 6.924C248.063 7.44667 248.287 8.16067 248.287 9.066V13H247.195V9.066C247.195 8.422 247.041 7.93667 246.733 7.61C246.435 7.28333 246.001 7.12 245.431 7.12C244.862 7.12 244.405 7.36267 244.059 7.848C243.714 8.324 243.541 8.98667 243.541 9.836V13H242.435V3.466H243.541V7.54ZM250.955 6.294H252.061V13H250.955V6.294ZM251.501 4.726C251.277 4.726 251.099 4.66533 250.969 4.544C250.847 4.41333 250.787 4.24533 250.787 4.04C250.787 3.82533 250.847 3.65733 250.969 3.536C251.099 3.40533 251.277 3.34 251.501 3.34C251.725 3.34 251.902 3.40533 252.033 3.536C252.173 3.65733 252.243 3.82533 252.243 4.04C252.243 4.24533 252.173 4.41333 252.033 4.544C251.902 4.66533 251.725 4.726 251.501 4.726ZM256.132 7.596C256.571 6.62533 257.322 6.14 258.386 6.14C259.18 6.14 259.796 6.40133 260.234 6.924C260.682 7.44667 260.906 8.16067 260.906 9.066V13H259.814V9.066C259.814 8.422 259.66 7.93667 259.352 7.61C259.054 7.28333 258.624 7.12 258.064 7.12C257.504 7.12 257.052 7.34867 256.706 7.806C256.361 8.26333 256.179 8.898 256.16 9.71V13H255.054V6.308H256.006L256.132 7.596ZM267.75 4.194V9.822C267.75 10.6433 267.955 11.236 268.366 11.6C268.776 11.964 269.318 12.146 269.99 12.146C270.662 12.146 271.203 11.964 271.614 11.6C272.024 11.236 272.23 10.6433 272.23 9.822V4.194H273.336V9.822C273.336 10.9233 273.032 11.754 272.426 12.314C271.819 12.874 271.002 13.154 269.976 13.154C268.958 13.154 268.146 12.874 267.54 12.314C266.942 11.754 266.644 10.9233 266.644 9.822V4.194H267.75ZM280.69 6.336C280.531 5.47733 279.901 5.048 278.8 5.048C278.212 5.048 277.759 5.17867 277.442 5.44C277.125 5.692 276.966 6 276.966 6.364C276.966 6.71867 277.064 6.98933 277.26 7.176C277.456 7.36267 277.773 7.526 278.212 7.666L280.046 8.296C280.671 8.51067 281.166 8.80467 281.53 9.178C281.903 9.55133 282.09 10.0787 282.09 10.76C282.09 11.432 281.801 12.0013 281.222 12.468C280.643 12.9253 279.869 13.154 278.898 13.154C277.927 13.154 277.129 12.9113 276.504 12.426C275.888 11.9313 275.571 11.2407 275.552 10.354H276.63C276.63 10.9327 276.831 11.376 277.232 11.684C277.643 11.992 278.165 12.146 278.8 12.146C279.444 12.146 279.953 12.006 280.326 11.726C280.699 11.4367 280.886 11.1007 280.886 10.718C280.886 10.326 280.769 10.018 280.536 9.794C280.312 9.57 279.976 9.38333 279.528 9.234L277.974 8.66C277.246 8.41733 276.695 8.128 276.322 7.792C275.949 7.456 275.762 6.966 275.762 6.322C275.762 5.66867 276.023 5.12733 276.546 4.698C277.069 4.25933 277.801 4.04 278.744 4.04C279.687 4.04 280.405 4.25 280.9 4.67C281.404 5.08067 281.693 5.636 281.768 6.336H280.69ZM286.451 4.194H287.795L290.749 13H289.601L288.845 10.76H285.345L284.589 13H283.427L286.451 4.194ZM285.639 9.892H288.565L287.109 5.552L285.639 9.892Z" fill="#65635F"/>
<rect x="4.45508" y="5.82202" width="8.71111" height="6.84444" stroke="#65635F"/>
<path d="M7.5 7.68893L10.1667 7.6667" stroke="#65635F" stroke-linecap="square"/>
<rect x="3.83301" y="3.33325" width="9.95555" height="2.48889" stroke="#65635F"/>
</g>
<defs>
<clipPath id="clip0_0_232">
<rect width="419" height="16" fill="white" transform="translate(0.5)"/>
</clipPath>
</defs>
</svg>
