<svg width="418" height="16" viewBox="0 0 418 16" fill="none" xmlns="http://www.w3.org/2000/svg">
<g clip-path="url(#clip0_0_228)">
<path d="M29.104 6.336C28.9453 5.47733 28.3153 5.048 27.214 5.048C26.626 5.048 26.1733 5.17867 25.856 5.44C25.5387 5.692 25.38 6 25.38 6.364C25.38 6.71867 25.478 6.98933 25.674 7.176C25.87 7.36267 26.1873 7.526 26.626 7.666L28.46 8.296C29.0853 8.51067 29.58 8.80467 29.944 9.178C30.3173 9.55133 30.504 10.0787 30.504 10.76C30.504 11.432 30.2147 12.0013 29.636 12.468C29.0573 12.9253 28.2827 13.154 27.312 13.154C26.3413 13.154 25.5433 12.9113 24.918 12.426C24.302 11.9313 23.9847 11.2407 23.966 10.354H25.044C25.044 10.9327 25.2447 11.376 25.646 11.684C26.0567 11.992 26.5793 12.146 27.214 12.146C27.858 12.146 28.3667 12.006 28.74 11.726C29.1133 11.4367 29.3 11.1007 29.3 10.718C29.3 10.326 29.1833 10.018 28.95 9.794C28.726 9.57 28.39 9.38333 27.942 9.234L26.388 8.66C25.66 8.41733 25.1093 8.128 24.736 7.792C24.3627 7.456 24.176 6.966 24.176 6.322C24.176 5.66867 24.4373 5.12733 24.96 4.698C25.4827 4.25933 26.2153 4.04 27.158 4.04C28.1007 4.04 28.8193 4.25 29.314 4.67C29.818 5.08067 30.1073 5.636 30.182 6.336H29.104ZM33.9966 7.54C34.4446 6.60667 35.1866 6.14 36.2226 6.14C37.0159 6.14 37.6319 6.40133 38.0706 6.924C38.5186 7.44667 38.7426 8.16067 38.7426 9.066V13H37.6506V9.066C37.6506 8.422 37.4966 7.93667 37.1886 7.61C36.8899 7.28333 36.4559 7.12 35.8866 7.12C35.3172 7.12 34.8599 7.36267 34.5146 7.848C34.1692 8.324 33.9966 8.98667 33.9966 9.836V13H32.8906V3.466H33.9966V7.54ZM41.4098 6.294H42.5158V13H41.4098V6.294ZM41.9558 4.726C41.7318 4.726 41.5544 4.66533 41.4238 4.544C41.3024 4.41333 41.2418 4.24533 41.2418 4.04C41.2418 3.82533 41.3024 3.65733 41.4238 3.536C41.5544 3.40533 41.7318 3.34 41.9558 3.34C42.1798 3.34 42.3571 3.40533 42.4878 3.536C42.6278 3.65733 42.6978 3.82533 42.6978 4.04C42.6978 4.24533 42.6278 4.41333 42.4878 4.544C42.3571 4.66533 42.1798 4.726 41.9558 4.726ZM46.5594 7.33C46.998 6.53667 47.6514 6.14 48.5194 6.14C49.3967 6.14 50.1247 6.462 50.7034 7.106C51.2914 7.75 51.5854 8.59933 51.5854 9.654C51.5854 10.7087 51.2914 11.558 50.7034 12.202C50.1154 12.8367 49.392 13.154 48.5334 13.154C47.6747 13.154 47.04 12.832 46.6294 12.188V16.29H45.5234V6.308H46.4334L46.5594 7.33ZM48.4774 12.174C49 12.174 49.4574 11.95 49.8494 11.502C50.2507 11.054 50.4514 10.4427 50.4514 9.668C50.4514 8.884 50.26 8.26333 49.8774 7.806C49.504 7.34867 49.0467 7.12 48.5054 7.12C47.964 7.12 47.5207 7.29267 47.1754 7.638C46.83 7.974 46.648 8.43133 46.6294 9.01V10.284C46.6294 10.872 46.8067 11.334 47.1614 11.67C47.516 12.006 47.9547 12.174 48.4774 12.174ZM53.4859 7.946C53.4859 7.39533 53.7192 6.95667 54.1859 6.63C54.6619 6.30333 55.3012 6.14 56.1039 6.14C56.9065 6.14 57.5319 6.308 57.9799 6.644C58.4372 6.98 58.6752 7.40467 58.6939 7.918H57.6159C57.5319 7.31133 57.0185 7.008 56.0759 7.008C55.6185 7.008 55.2639 7.11067 55.0119 7.316C54.7692 7.52133 54.6479 7.74533 54.6479 7.988C54.6479 8.22133 54.7412 8.422 54.9279 8.59C55.1145 8.74867 55.4132 8.88867 55.8239 9.01L57.1679 9.458C57.7372 9.63533 58.1712 9.864 58.4699 10.144C58.7779 10.4147 58.9319 10.7927 58.9319 11.278C58.9319 11.754 58.6845 12.188 58.1899 12.58C57.6952 12.9627 57.0045 13.154 56.1179 13.154C55.2312 13.154 54.5405 12.958 54.0459 12.566C53.5512 12.1647 53.2899 11.6513 53.2619 11.026H54.3259C54.3445 11.446 54.5125 11.7633 54.8299 11.978C55.1565 12.1833 55.5625 12.286 56.0479 12.286C56.5332 12.286 56.9345 12.1833 57.2519 11.978C57.5692 11.7727 57.7279 11.53 57.7279 11.25C57.7279 10.9607 57.6345 10.7413 57.4479 10.592C57.2612 10.4427 56.9579 10.312 56.5379 10.2L55.2359 9.766C54.0692 9.42067 53.4859 8.814 53.4859 7.946ZM67.789 4.404C67.481 4.28267 67.2383 4.222 67.061 4.222C66.7343 4.222 66.4776 4.30133 66.291 4.46C66.1043 4.61867 66.011 4.89867 66.011 5.3V6.308H67.397V7.064H66.011V13H64.919V7.064H63.813V6.308H64.919V5.286C64.919 4.62333 65.101 4.138 65.465 3.83C65.829 3.51267 66.249 3.354 66.725 3.354C67.201 3.354 67.621 3.41467 67.985 3.536L67.789 4.404ZM72.0698 7.246C71.0151 7.246 70.4691 8.07667 70.4318 9.738V13H69.3258V6.294H70.4318V7.582C70.7678 6.64867 71.3604 6.182 72.2098 6.182C72.4804 6.182 72.7371 6.224 72.9798 6.308L72.9238 7.386C72.6438 7.29267 72.3591 7.246 72.0698 7.246ZM77.0798 6.14C78.0131 6.14 78.7645 6.44333 79.3338 7.05C79.9125 7.65667 80.2018 8.52467 80.2018 9.654C80.2018 10.774 79.9125 11.6373 79.3338 12.244C78.7645 12.8507 78.0131 13.154 77.0798 13.154C76.1465 13.154 75.3905 12.8507 74.8118 12.244C74.2425 11.6373 73.9578 10.774 73.9578 9.654C73.9578 8.52467 74.2425 7.65667 74.8118 7.05C75.3905 6.44333 76.1465 6.14 77.0798 6.14ZM79.0818 9.654C79.0818 8.85133 78.9138 8.226 78.5778 7.778C78.2418 7.32067 77.7471 7.092 77.0938 7.092C76.4498 7.092 75.9551 7.32067 75.6098 7.778C75.2645 8.226 75.0918 8.85133 75.0918 9.654C75.0918 10.4473 75.2551 11.0727 75.5818 11.53C75.9085 11.978 76.3938 12.202 77.0378 12.202C77.6911 12.202 78.1951 11.978 78.5498 11.53C78.9045 11.0727 79.0818 10.4473 79.0818 9.654ZM83.3784 7.596C83.8171 6.62533 84.5684 6.14 85.6324 6.14C86.2111 6.14 86.6964 6.28467 87.0884 6.574C87.4804 6.854 87.7651 7.246 87.9424 7.75C88.3624 6.67667 89.1417 6.14 90.2804 6.14C91.0831 6.14 91.7037 6.40133 92.1424 6.924C92.5811 7.44667 92.8004 8.16067 92.8004 9.066V13H91.7084V9.066C91.7084 8.422 91.5544 7.93667 91.2464 7.61C90.9477 7.28333 90.5137 7.12 89.9444 7.12C89.3751 7.12 88.9317 7.35333 88.6144 7.82C88.3064 8.28667 88.1524 8.93067 88.1524 9.752V13H87.0604V9.066C87.0604 8.422 86.9064 7.93667 86.5984 7.61C86.2997 7.28333 85.8704 7.12 85.3104 7.12C84.7504 7.12 84.2977 7.34867 83.9524 7.806C83.6071 8.26333 83.4251 8.898 83.4064 9.71V13H82.3004V6.308H83.2524L83.3784 7.596ZM100.022 4.194L104.39 11.264V4.194H105.496V13H104.264L99.8263 5.832V13H98.7063V4.194H100.022ZM110.628 12.258C111.552 12.258 112.08 11.852 112.21 11.04H113.344C113.242 11.712 112.943 12.2347 112.448 12.608C111.963 12.972 111.356 13.154 110.628 13.154C109.732 13.154 109.004 12.8367 108.444 12.202C107.884 11.558 107.604 10.704 107.604 9.64C107.604 8.576 107.884 7.72667 108.444 7.092C109.014 6.45733 109.765 6.14 110.698 6.14C111.641 6.14 112.341 6.504 112.798 7.232C113.265 7.96 113.428 8.84667 113.288 9.892H108.71C108.71 10.5827 108.878 11.152 109.214 11.6C109.55 12.0387 110.022 12.258 110.628 12.258ZM111.44 7.19C111.226 7.078 110.964 7.022 110.656 7.022C110.087 7.022 109.634 7.218 109.298 7.61C108.972 7.99267 108.78 8.47333 108.724 9.052H112.294C112.294 8.11867 112.01 7.498 111.44 7.19ZM115.509 6.308L117.133 11.642L118.729 6.63H119.653L121.235 11.698L122.873 6.308H123.965L121.781 13H120.703L119.163 8.31L117.651 13H116.587L114.361 6.308H115.509ZM129.046 4.194L131.412 8.24L133.834 4.194H135.136L131.972 9.388V13H130.852V9.388L127.73 4.194H129.046ZM138.179 6.14C139.113 6.14 139.864 6.44333 140.433 7.05C141.012 7.65667 141.301 8.52467 141.301 9.654C141.301 10.774 141.012 11.6373 140.433 12.244C139.864 12.8507 139.113 13.154 138.179 13.154C137.246 13.154 136.49 12.8507 135.911 12.244C135.342 11.6373 135.057 10.774 135.057 9.654C135.057 8.52467 135.342 7.65667 135.911 7.05C136.49 6.44333 137.246 6.14 138.179 6.14ZM140.181 9.654C140.181 8.85133 140.013 8.226 139.677 7.778C139.341 7.32067 138.847 7.092 138.193 7.092C137.549 7.092 137.055 7.32067 136.709 7.778C136.364 8.226 136.191 8.85133 136.191 9.654C136.191 10.4473 136.355 11.0727 136.681 11.53C137.008 11.978 137.493 12.202 138.137 12.202C138.791 12.202 139.295 11.978 139.649 11.53C140.004 11.0727 140.181 10.4473 140.181 9.654ZM146.144 7.246C145.089 7.246 144.543 8.07667 144.506 9.738V13H143.4V6.294H144.506V7.582C144.842 6.64867 145.435 6.182 146.284 6.182C146.555 6.182 146.811 6.224 147.054 6.308L146.998 7.386C146.718 7.29267 146.433 7.246 146.144 7.246ZM150.748 9.458L149.852 10.186V13H148.746V3.466H149.852V9.01L153.086 6.308H154.626L151.546 8.814L154.78 13H153.422L150.748 9.458ZM156.704 13.07C156.49 13.0513 156.312 12.9813 156.172 12.86C156.032 12.7387 155.962 12.5753 155.962 12.37C155.962 12.1647 156.032 11.992 156.172 11.852C156.322 11.712 156.527 11.642 156.788 11.642C157.059 11.642 157.283 11.7493 157.46 11.964C157.638 12.1693 157.726 12.4307 157.726 12.748C157.726 13.0653 157.624 13.3873 157.418 13.714C157.213 14.05 156.9 14.3207 156.48 14.526L155.654 14.12C156.233 13.84 156.583 13.49 156.704 13.07ZM164.212 4.194L168.58 11.264V4.194H169.686V13H168.454L164.016 5.832V13H162.896V4.194H164.212ZM172.55 4.194L174.916 8.24L177.338 4.194H178.64L175.476 9.388V13H174.356V9.388L171.234 4.194H172.55ZM180.247 13.07C180.033 13.0513 179.855 12.9813 179.715 12.86C179.575 12.7387 179.505 12.5753 179.505 12.37C179.505 12.1647 179.575 11.992 179.715 11.852C179.865 11.712 180.07 11.642 180.331 11.642C180.602 11.642 180.826 11.7493 181.003 11.964C181.181 12.1693 181.269 12.4307 181.269 12.748C181.269 13.0653 181.167 13.3873 180.961 13.714C180.756 14.05 180.443 14.3207 180.023 14.526L179.197 14.12C179.776 13.84 180.126 13.49 180.247 13.07ZM187.377 4.194V9.822C187.377 10.6433 187.582 11.236 187.993 11.6C188.403 11.964 188.945 12.146 189.617 12.146C190.289 12.146 190.83 11.964 191.241 11.6C191.651 11.236 191.857 10.6433 191.857 9.822V4.194H192.963V9.822C192.963 10.9233 192.659 11.754 192.053 12.314C191.446 12.874 190.629 13.154 189.603 13.154C188.585 13.154 187.773 12.874 187.167 12.314C186.569 11.754 186.271 10.9233 186.271 9.822V4.194H187.377ZM200.317 6.336C200.158 5.47733 199.528 5.048 198.427 5.048C197.839 5.048 197.386 5.17867 197.069 5.44C196.752 5.692 196.593 6 196.593 6.364C196.593 6.71867 196.691 6.98933 196.887 7.176C197.083 7.36267 197.4 7.526 197.839 7.666L199.673 8.296C200.298 8.51067 200.793 8.80467 201.157 9.178C201.53 9.55133 201.717 10.0787 201.717 10.76C201.717 11.432 201.428 12.0013 200.849 12.468C200.27 12.9253 199.496 13.154 198.525 13.154C197.554 13.154 196.756 12.9113 196.131 12.426C195.515 11.9313 195.198 11.2407 195.179 10.354H196.257C196.257 10.9327 196.458 11.376 196.859 11.684C197.27 11.992 197.792 12.146 198.427 12.146C199.071 12.146 199.58 12.006 199.953 11.726C200.326 11.4367 200.513 11.1007 200.513 10.718C200.513 10.326 200.396 10.018 200.163 9.794C199.939 9.57 199.603 9.38333 199.155 9.234L197.601 8.66C196.873 8.41733 196.322 8.128 195.949 7.792C195.576 7.456 195.389 6.966 195.389 6.322C195.389 5.66867 195.65 5.12733 196.173 4.698C196.696 4.25933 197.428 4.04 198.371 4.04C199.314 4.04 200.032 4.25 200.527 4.67C201.031 5.08067 201.32 5.636 201.395 6.336H200.317ZM206.077 4.194H207.421L210.375 13H209.227L208.471 10.76H204.971L204.215 13H203.053L206.077 4.194ZM205.265 9.892H208.191L206.735 5.552L205.265 9.892Z" fill="#65635F"/>
<ellipse cx="8" cy="8.248" rx="4" ry="5.58125" stroke="#65635F"/>
<circle cx="8" cy="6.33325" r="1" stroke="#65635F"/>
</g>
<defs>
<clipPath id="clip0_0_228">
<rect width="418" height="16" fill="white"/>
</clipPath>
</defs>
</svg>
